<?xml version="1.0" standalone="no"?>
<!DOCTYPE svg PUBLIC "-//W3C//DTD SVG 20010904//EN"
 "http://www.w3.org/TR/2001/REC-SVG-20010904/DTD/svg10.dtd">
<svg version="1.0" xmlns="http://www.w3.org/2000/svg"
 width="1200.000000pt" height="900.000000pt" viewBox="0 0 1200.000000 900.000000"
 preserveAspectRatio="xMidYMid meet">

<g transform="translate(0.000000,900.000000) scale(0.100000,-0.100000)"
fill="#000000" stroke="none">
<path d="M0 4500 l0 -4500 384 0 384 0 17 50 c12 37 22 50 36 50 24 0 24 -2
-1 -52 -11 -23 -20 -43 -20 -45 0 -2 2520 -3 5600 -3 l5600 0 0 4500 0 4500
-6000 0 -6000 0 0 -4500z m2530 4396 c0 -16 -18 -31 -27 -22 -8 8 5 36 17 36
5 0 10 -6 10 -14z m-345 -5 c7 -12 -12 -24 -25 -16 -11 7 -4 25 10 25 5 0 11
-4 15 -9z m125 -5 c0 -2 -9 -6 -20 -9 -11 -3 -18 -1 -14 4 5 9 34 13 34 5z
m-480 -24 c0 -11 -36 -28 -72 -36 -32 -7 -37 8 -9 24 14 7 21 6 25 -3 3 -8 8
-7 16 6 11 17 40 24 40 9z m975 -22 c-3 -5 -12 -10 -20 -10 -8 0 -17 5 -20 10
-4 6 5 10 20 10 15 0 24 -4 20 -10z m-1161 -58 c-6 -4 -15 -17 -19 -30 -7 -25
-97 -122 -112 -122 -5 0 -9 -8 -10 -17 -2 -28 -32 -104 -54 -134 -10 -15 -19
-31 -19 -37 0 -5 -7 -15 -15 -22 -12 -10 -15 -8 -19 12 -3 12 -5 30 -5 38 0 8
-3 26 -7 40 -7 25 -7 25 13 7 15 -13 23 -15 28 -7 4 7 1 16 -6 21 -11 6 -10
12 7 31 11 13 29 40 40 62 10 21 30 46 44 54 34 22 80 73 80 88 0 12 19 21 50
23 10 0 11 -2 4 -7z m66 -7 c0 -8 -9 -19 -20 -25 -14 -7 -20 -7 -20 0 0 5 5
10 10 10 6 0 10 7 10 15 0 8 5 15 10 15 6 0 10 -7 10 -15z m-90 -109 c0 -7 -7
-19 -15 -26 -12 -10 -15 -9 -15 7 0 11 3 23 7 26 11 12 23 8 23 -7z m60 -36
c0 -5 -10 -15 -22 -21 -23 -12 -23 -12 -4 10 21 23 26 26 26 11z m8125 -10
c99 -6 229 -12 289 -15 60 -3 114 -9 120 -13 6 -3 36 -10 66 -14 104 -13 185
-27 220 -38 19 -6 82 -17 140 -25 146 -20 148 -21 163 -34 8 -6 55 -20 105
-31 50 -10 99 -24 109 -29 23 -13 167 -51 193 -51 11 0 20 -4 20 -8 0 -5 15
-16 33 -24 141 -68 174 -83 186 -85 24 -3 55 -41 58 -70 5 -49 30 -166 53
-248 12 -44 26 -104 31 -134 6 -29 14 -62 19 -72 13 -24 13 -62 -2 -77 -8 -8
-8 -15 -1 -24 6 -7 13 -26 16 -43 3 -16 11 -52 17 -80 27 -125 34 -258 34
-620 0 -340 -6 -468 -28 -560 -2 -11 -5 -32 -5 -47 -1 -15 -8 -34 -17 -42 -8
-9 -11 -16 -6 -16 5 0 3 -36 -4 -82 -19 -119 -25 -148 -35 -154 -5 -3 -9 -17
-9 -31 0 -14 -6 -39 -14 -56 -31 -73 -36 -89 -36 -117 0 -17 -4 -30 -10 -30
-5 0 -10 5 -10 11 0 5 -4 7 -10 4 -5 -3 -10 -11 -10 -16 0 -6 4 -8 9 -4 5 3
12 1 15 -4 6 -9 -7 -45 -43 -126 -10 -22 -22 -51 -26 -65 -4 -14 -14 -34 -21
-45 -8 -11 -14 -30 -14 -42 0 -13 -6 -23 -14 -23 -9 0 -12 -10 -10 -30 3 -22
-2 -34 -16 -42 -11 -7 -20 -18 -20 -23 0 -17 -24 -65 -32 -65 -5 0 -8 -9 -8
-19 0 -11 -5 -23 -10 -26 -6 -4 -31 -42 -55 -85 -25 -43 -52 -84 -60 -90 -8
-7 -13 -16 -10 -20 2 -4 -5 -16 -15 -28 -11 -12 -20 -25 -20 -30 0 -5 -9 -17
-20 -27 -12 -11 -28 -34 -36 -51 -9 -18 -27 -45 -40 -59 -13 -14 -24 -28 -24
-30 0 -2 -11 -16 -25 -32 -57 -63 -105 -121 -105 -126 0 -12 -51 -57 -65 -57
-8 0 -15 -6 -15 -14 0 -15 -246 -266 -260 -266 -5 0 -30 -20 -56 -45 -31 -29
-55 -43 -68 -41 -12 2 -15 1 -7 -1 13 -5 -93 -113 -111 -113 -14 0 -52 -24
-78 -50 -14 -14 -51 -41 -83 -60 -31 -19 -57 -38 -57 -42 0 -4 -7 -8 -15 -8
-8 0 -28 -12 -45 -26 -32 -29 -76 -54 -94 -54 -7 0 -21 -8 -32 -17 -34 -30
-77 -58 -121 -77 -23 -10 -44 -25 -47 -32 -3 -8 -19 -14 -36 -14 -16 0 -30 -4
-30 -8 0 -4 -13 -16 -30 -25 -16 -10 -30 -14 -30 -9 0 5 -6 9 -12 9 -7 0 -48
17 -90 38 -76 37 -99 53 -57 40 15 -5 19 -4 14 5 -4 6 -19 10 -32 7 -25 -5
-71 20 -108 57 -9 9 -25 16 -35 16 -10 0 -31 10 -47 23 -28 22 -60 39 -97 51
-11 4 -16 12 -12 21 3 8 1 15 -4 15 -26 0 -103 46 -112 66 -6 13 -15 21 -19
18 -11 -7 -131 81 -197 143 -7 7 -18 13 -23 13 -18 0 -276 237 -333 307 -24
29 -46 50 -49 47 -2 -3 -20 12 -38 32 -19 20 -42 45 -51 55 -10 11 -15 19 -12
19 4 0 -15 24 -42 54 -54 60 -65 74 -149 196 -114 165 -135 199 -135 226 0 15
-3 24 -6 21 -11 -10 -63 64 -74 106 -6 21 -17 37 -25 37 -10 0 -15 10 -15 28
0 16 -9 37 -20 47 -11 10 -20 24 -20 32 0 16 -39 95 -50 103 -4 3 -15 36 -25
75 -9 38 -25 86 -35 105 -24 47 -50 125 -61 180 -5 25 -20 97 -34 160 -14 63
-28 131 -31 150 -4 19 -10 43 -15 52 -5 9 -9 32 -9 50 0 19 -4 38 -9 44 -18
17 -39 755 -22 788 5 12 12 86 14 166 3 80 7 152 10 160 3 8 8 29 11 45 3 17
10 50 15 75 15 69 30 148 41 220 9 63 12 76 30 150 16 64 28 115 38 165 14 67
28 101 49 122 21 20 74 48 86 44 5 -1 23 8 42 19 18 11 40 20 49 20 9 0 25 8
36 18 10 9 47 25 82 35 35 10 104 31 153 47 50 16 106 31 125 35 19 4 55 14
80 22 68 22 74 24 227 47 78 11 145 24 149 29 4 4 29 7 55 7 26 0 50 4 53 9 8
12 86 21 241 29 72 4 135 10 140 14 6 4 66 8 133 9 68 1 125 5 127 9 2 3 32 5
67 3 35 -2 144 -8 243 -13z m-8475 -53 c0 -5 -7 -4 -15 3 -8 7 -15 20 -15 29
1 13 3 13 15 -3 8 -11 15 -24 15 -29z m520 7 c0 -8 -4 -12 -10 -9 -5 3 -10 10
-10 16 0 5 5 9 10 9 6 0 10 -7 10 -16z m-470 -30 c-6 -14 -7 -36 -4 -50 4 -14
2 -24 -5 -24 -6 0 -11 5 -11 10 0 6 -4 10 -10 10 -5 0 -10 -6 -10 -14 0 -7 -6
-19 -14 -26 -8 -6 -12 -18 -9 -25 3 -8 -5 -31 -18 -51 l-23 -37 -15 32 c-14
30 -14 34 2 46 9 7 17 18 17 24 0 22 31 72 40 66 6 -4 10 -1 10 5 0 10 47 60
56 60 2 0 -1 -12 -6 -26z m390 -5 c0 -5 -4 -9 -10 -9 -5 0 -10 7 -10 16 0 8 5
12 10 9 6 -3 10 -10 10 -16z m-275 -99 c-10 -11 -20 -18 -23 -15 -7 6 18 35
31 35 5 0 2 -9 -8 -20z m1460 0 c61 -7 124 -19 140 -28 67 -34 245 -186 245
-209 0 -8 10 -33 23 -56 21 -39 37 -83 52 -147 14 -57 50 -137 76 -172 30 -38
40 -70 16 -50 -7 6 -36 13 -64 16 -39 3 -56 0 -70 -12 -10 -10 -35 -25 -55
-34 -30 -14 -38 -24 -40 -45 -4 -57 2 -74 36 -117 20 -24 36 -48 36 -55 0 -19
18 -12 25 10 5 14 1 25 -11 33 -13 10 -14 15 -5 21 19 11 30 -5 40 -59 12 -64
25 -76 50 -45 l21 24 -6 -46 c-6 -40 -1 -57 27 -115 31 -63 34 -75 33 -163 0
-68 -7 -119 -22 -174 -16 -57 -24 -117 -28 -220 -6 -152 -15 -234 -28 -256 -5
-8 -10 -55 -11 -105 -2 -104 -23 -206 -42 -206 -7 0 -13 11 -13 25 0 23 -4 25
-40 25 -22 0 -40 5 -40 10 0 13 -31 13 -101 -2 -51 -10 -64 -9 -125 10 -104
33 -162 62 -167 84 -4 15 -14 19 -49 18 -103 -4 -163 15 -263 80 -75 49 -115
70 -131 70 -7 0 -19 7 -28 15 -8 9 -19 15 -23 14 -21 -4 -73 15 -73 27 0 11
-19 14 -79 14 -44 0 -83 5 -86 10 -12 20 -35 10 -35 -14 0 -14 -4 -28 -10 -31
-15 -9 -7 -150 10 -170 7 -9 30 -25 49 -35 44 -22 115 -85 117 -102 0 -7 2
-23 2 -36 1 -13 13 -33 26 -45 36 -34 75 -97 70 -112 -7 -17 30 -103 56 -130
10 -11 28 -41 39 -67 18 -43 23 -47 58 -50 32 -3 40 -8 54 -38 9 -19 19 -56
22 -82 7 -53 54 -153 87 -183 18 -16 21 -26 16 -60 -5 -28 -2 -47 8 -60 14
-19 14 -19 35 5 11 14 21 32 21 40 1 15 54 80 66 80 3 0 3 -8 -1 -17 -3 -10
-10 -60 -14 -111 -5 -52 -14 -98 -21 -105 -10 -9 -14 -9 -17 1 -3 6 -9 12 -15
12 -5 0 -62 50 -127 111 -143 137 -167 154 -262 178 -41 11 -92 29 -112 40
-21 12 -43 21 -49 21 -18 0 -241 126 -333 187 -44 30 -125 76 -180 102 -88 43
-111 50 -198 59 -60 6 -104 15 -111 23 -13 14 -5 113 27 329 6 47 12 155 12
240 -1 165 -2 173 -62 255 -12 17 -33 56 -47 86 -14 31 -32 62 -41 69 -21 18
-126 147 -151 186 -10 16 -24 33 -31 37 -7 4 -13 16 -13 25 0 10 -6 26 -14 37
-13 20 -22 53 -33 127 -3 21 -11 42 -19 49 -15 12 -19 39 -6 39 4 0 13 -5 20
-12 9 -9 15 -9 24 0 9 9 8 15 -6 25 -24 17 -13 57 15 57 20 0 25 -21 20 -87
-1 -18 3 -41 8 -51 6 -10 11 -39 12 -63 2 -61 19 -116 41 -135 15 -14 22 -15
45 -5 21 9 28 9 34 -1 4 -6 6 -15 3 -19 -2 -4 3 -12 11 -19 8 -7 15 -19 15
-27 0 -8 11 -28 25 -45 14 -16 25 -24 25 -17 0 6 -10 20 -22 30 -11 11 -19 21
-16 24 9 9 64 -51 60 -64 -3 -8 4 -12 19 -11 44 4 58 0 63 -18 7 -22 45 -62
128 -135 50 -44 67 -66 72 -93 16 -84 135 -142 230 -114 23 7 47 14 54 16 6 2
12 15 12 28 0 15 8 30 20 36 17 9 24 7 40 -12 18 -22 19 -22 19 -3 0 11 -7 44
-17 73 l-18 53 -28 -30 c-47 -49 -108 -51 -229 -10 -88 30 -107 41 -169 98
-38 35 -67 66 -64 68 2 2 34 -16 71 -41 47 -33 76 -46 101 -46 53 0 42 24 -21
44 -112 35 -154 99 -155 237 0 87 8 109 41 109 9 0 28 -10 43 -21 15 -12 47
-24 72 -27 24 -2 44 -10 44 -16 0 -6 -18 -31 -40 -54 -42 -46 -50 -81 -25
-102 13 -10 15 -9 15 11 0 22 1 22 17 6 16 -16 18 -15 39 4 37 35 55 19 52
-43 -3 -50 -2 -53 22 -56 14 -1 44 -8 68 -14 76 -19 81 31 7 66 -19 9 -40 27
-46 39 -6 12 -20 31 -30 43 -15 16 -17 26 -9 53 9 32 6 37 -46 97 -63 71 -91
84 -181 84 -56 0 -68 -3 -94 -28 l-30 -28 11 -65 c7 -35 15 -84 19 -109 5 -25
15 -64 23 -87 9 -24 14 -43 13 -43 -14 0 -65 90 -65 114 0 19 -3 26 -8 19 -6
-9 -14 -3 -26 18 -15 25 -17 42 -12 88 4 31 7 64 7 74 0 9 4 17 10 17 5 0 9 7
9 15 0 20 58 74 87 81 12 4 20 11 17 16 -3 5 -17 7 -30 4 -27 -7 -31 5 -8 25
10 8 14 24 12 45 -3 26 0 34 17 38 12 4 16 9 10 13 -25 19 -9 103 18 103 7 0
30 20 51 45 44 52 56 56 56 19 0 -27 17 -29 32 -3 23 42 49 82 44 67 -19 -54
-19 -54 -2 -34 8 10 17 23 19 29 2 6 15 7 31 3 21 -5 26 -11 21 -26 -4 -13 -1
-22 9 -26 9 -3 16 -12 16 -20 0 -16 40 -45 52 -38 4 3 8 13 8 23 0 32 34 61
74 61 30 0 36 4 37 23 l2 22 4 -22 c2 -13 11 -23 20 -23 10 0 14 6 10 20 -3
10 1 24 9 31 8 6 14 19 14 28 0 11 9 17 27 19 36 3 40 9 17 27 -19 14 -18 14
3 15 31 0 53 10 53 24 0 16 43 53 66 58 23 4 37 73 29 143 -18 143 -17 173 2
178 58 16 140 23 386 30 37 1 71 7 75 12 23 33 89 37 277 15z m-775 -34 c0
-11 -19 -15 -25 -6 -3 5 1 10 9 10 9 0 16 -2 16 -4z m-922 -70 c2 -9 1 -25 -3
-34 -6 -15 -8 -15 -15 3 -13 31 -12 57 3 53 6 -3 14 -12 15 -22z m512 -45 c0
-6 -4 -13 -10 -16 -5 -3 -10 1 -10 9 0 9 5 16 10 16 6 0 10 -4 10 -9z m1550
-11 c0 -5 -2 -10 -4 -10 -3 0 -8 5 -11 10 -3 6 -1 10 4 10 6 0 11 -4 11 -10z
m-1443 -22 c-3 -8 -6 -5 -6 6 -1 11 2 17 5 13 3 -3 4 -12 1 -19z m-30 -25 c17
-13 9 -33 -12 -33 -15 0 -29 46 -18 62 5 9 8 8 11 -2 2 -8 11 -20 19 -27z
m-599 -35 c-2 -30 -8 -43 -18 -43 -19 0 -26 51 -9 71 21 25 30 15 27 -28z
m282 -2 c0 -24 -6 -36 -25 -46 -33 -18 -57 2 -53 44 2 25 8 32 33 37 40 7 45
4 45 -35z m-106 -42 c11 -28 6 -51 -15 -78 -11 -14 -17 -26 -13 -26 4 0 -2 -9
-14 -20 -12 -11 -30 -20 -42 -20 -23 0 -41 31 -22 38 9 3 10 15 6 39 -6 31 -4
35 12 31 12 -2 28 8 42 24 27 32 37 35 46 12z m-152 -31 c17 -15 25 -43 12
-43 -4 0 -15 10 -25 22 -32 36 -22 53 13 21z m399 -17 c-6 -14 -15 -26 -21
-26 -14 0 -13 7 6 36 21 31 28 26 15 -10z m-429 -56 c11 0 37 -29 38 -42 0 -4
-13 -2 -30 3 -24 9 -30 17 -29 37 0 15 3 21 6 15 2 -7 9 -13 15 -13z m384 -17
c-8 -16 -22 -36 -31 -43 -13 -11 -11 -4 5 25 32 57 32 57 37 52 2 -3 -2 -18
-11 -34z m-442 -25 c10 -39 7 -70 -6 -66 -15 5 -24 88 -10 88 5 0 12 -10 16
-22z m141 -64 c0 -51 -26 -55 -30 -4 -3 40 2 53 18 47 7 -2 12 -21 12 -43z
m68 6 c3 -11 2 -20 -3 -20 -8 0 -20 24 -20 41 0 17 17 1 23 -21z m143 -59
c-12 -27 -30 -56 -39 -65 -9 -10 -17 -22 -17 -28 0 -6 -3 -8 -7 -5 -6 7 12 50
30 72 5 6 17 25 27 43 29 48 32 39 6 -17z m-296 -18 c0 -18 -29 -16 -36 2 -4
8 -3 23 1 33 6 16 7 16 21 -2 8 -11 14 -26 14 -33z m-125 8 c-3 -10 -1 -31 5
-47 6 -16 8 -25 4 -21 -16 16 -33 -36 -40 -122 -5 -65 -11 -91 -20 -91 -11 0
-13 24 -10 116 3 110 5 117 30 140 14 14 26 29 26 34 0 6 3 10 6 10 3 0 3 -8
-1 -19z m255 4 c0 -8 -7 -15 -15 -15 -8 0 -15 7 -15 15 0 8 7 15 15 15 8 0 15
-7 15 -15z m-103 -137 c-3 -8 -6 -5 -6 6 -1 11 2 17 5 13 3 -3 4 -12 1 -19z
m-137 -80 c0 -7 -4 -19 -9 -26 -7 -11 -10 -10 -15 3 -10 26 -7 35 9 35 8 0 15
-6 15 -12z m9 -42 c-9 -8 -10 -7 -5 7 3 10 7 24 7 30 1 7 3 4 6 -7 3 -10 -1
-23 -8 -30z m17 -82 c-4 -9 -9 -15 -11 -12 -3 3 -3 13 1 22 4 9 9 15 11 12 3
-3 3 -13 -1 -22z m4612 -189 c18 -2 52 -16 75 -31 31 -20 55 -28 91 -28 45 -1
51 -4 90 -49 22 -26 49 -47 59 -47 49 0 95 -47 131 -137 22 -54 34 -73 52 -77
13 -4 39 -20 58 -36 18 -17 38 -30 43 -30 5 0 25 -17 46 -38 l36 -37 3 -130
c3 -112 0 -142 -21 -215 -13 -47 -34 -109 -47 -138 -13 -29 -24 -56 -24 -60 0
-12 -66 -173 -95 -232 -40 -83 -54 -105 -63 -103 -5 1 -6 -11 -4 -26 2 -16 -1
-32 -7 -35 -6 -4 -11 -14 -11 -22 0 -23 -42 -107 -68 -134 l-23 -25 1 25 c4
46 1 52 -21 45 -14 -5 -19 -3 -15 4 9 14 -12 53 -25 46 -5 -4 -9 -41 -9 -83
-1 -80 -12 -182 -30 -264 -5 -27 -15 -69 -20 -95 -6 -27 -14 -76 -19 -110 -5
-34 -12 -67 -16 -74 -5 -7 -8 -27 -7 -46 1 -24 -3 -33 -15 -33 -12 0 -13 -3
-3 -15 7 -8 8 -20 4 -27 -5 -7 -10 -31 -11 -52 -2 -21 -8 -44 -13 -51 -8 -9
-6 -14 5 -19 10 -3 13 -11 8 -18 -4 -7 -6 -43 -4 -80 1 -37 -3 -92 -10 -123
-10 -45 -10 -58 0 -64 10 -6 10 -17 2 -49 -6 -22 -13 -107 -16 -189 -2 -81 -5
-148 -5 -148 -1 0 -3 -128 -6 -285 -3 -225 -8 -309 -25 -405 -11 -66 -22 -156
-24 -199 -2 -44 -9 -84 -15 -90 -5 -5 -10 -31 -10 -57 0 -26 -4 -51 -10 -54
-5 -3 -10 -24 -10 -46 0 -39 -5 -45 -45 -51 -17 -3 -21 4 -26 47 -4 35 -2 59
9 79 9 19 16 69 18 135 2 59 9 158 14 221 6 63 8 129 5 145 -3 17 1 59 8 95 9
44 11 79 5 110 -5 25 -6 72 -3 104 4 33 8 125 11 205 2 80 8 159 12 174 4 16
5 63 1 105 -4 42 -4 82 0 87 3 6 6 56 7 112 1 56 4 113 8 127 10 42 -9 30 -38
-23 -14 -27 -40 -64 -56 -82 -35 -36 -90 -127 -109 -179 -13 -35 -22 -58 -40
-102 -5 -13 -18 -57 -29 -98 -11 -41 -34 -115 -52 -165 -17 -49 -36 -106 -42
-125 -5 -19 -16 -48 -23 -65 -7 -16 -19 -48 -28 -70 -9 -22 -41 -104 -71 -182
-31 -78 -56 -144 -56 -148 0 -7 -8 -25 -114 -248 -31 -65 -56 -121 -56 -124 0
-3 -11 -21 -25 -39 -14 -18 -25 -37 -25 -43 0 -6 -4 -11 -9 -11 -5 0 -12 -11
-15 -25 -4 -14 -17 -30 -31 -35 -16 -6 -23 -15 -19 -25 3 -8 1 -15 -5 -15 -6
0 -11 -9 -11 -21 0 -26 -26 -55 -33 -36 -3 7 -6 6 -6 -5 -1 -9 -5 -18 -10 -20
-16 -6 -91 -112 -91 -129 0 -9 -7 -22 -15 -29 -8 -7 -15 -17 -15 -23 0 -5 -16
-27 -35 -48 -19 -22 -35 -46 -35 -54 0 -8 -5 -15 -11 -15 -5 0 -16 -15 -24
-33 -12 -30 -18 -33 -44 -29 -20 3 -31 0 -31 -8 0 -19 -103 -109 -126 -110
-23 0 -44 -36 -44 -75 0 -14 -8 -30 -19 -37 -15 -9 -17 -17 -11 -40 9 -30 9
-31 -14 -22 -9 3 -16 15 -16 25 0 16 -7 19 -42 19 -24 0 -88 0 -144 0 -82 -1
-109 3 -145 20 -50 24 -81 41 -100 57 -20 15 -138 61 -177 68 -23 4 -34 1 -38
-10 -5 -13 -9 -13 -33 0 -21 10 -31 11 -40 2 -13 -13 -26 -2 -35 30 -6 19 -2
24 34 34 31 10 46 10 60 1 14 -9 22 -6 39 12 12 13 39 26 60 30 21 3 49 15 63
25 13 11 37 23 51 27 15 3 37 18 48 33 l21 26 -39 5 c-64 8 -164 53 -205 91
-41 39 -100 62 -136 52 -16 -4 -30 1 -46 16 -12 12 -26 18 -29 14 -4 -3 -7 0
-8 8 0 8 -23 33 -50 57 -42 36 -56 42 -94 42 -24 0 -46 -3 -48 -8 -10 -14 6
-62 19 -62 8 0 14 -4 14 -10 0 -5 -7 -10 -15 -10 -8 0 -15 -9 -15 -20 0 -11 5
-20 10 -20 6 0 10 -9 10 -19 0 -10 7 -21 15 -25 8 -3 15 -15 15 -26 0 -22 -10
-26 -27 -9 -8 8 -16 8 -30 0 -16 -9 -15 -10 9 -11 15 0 30 -5 33 -10 4 -6 11
-7 17 -4 6 4 9 1 6 -7 -6 -20 -68 -25 -68 -6 0 8 -6 20 -14 26 -10 8 -13 23
-9 47 3 21 2 34 -5 34 -6 0 -24 14 -41 31 -26 26 -29 34 -20 51 14 26 -7 49
-48 52 -17 2 -41 10 -54 19 -13 10 -29 17 -36 17 -7 0 -13 4 -13 8 0 10 64 75
113 115 22 17 59 48 81 68 165 144 278 212 448 270 43 15 69 1 61 -31 -4 -15
0 -20 15 -20 13 0 28 -12 39 -30 25 -43 33 -37 16 12 -10 29 -11 44 -4 46 21
7 10 29 -29 58 -22 16 -40 32 -40 36 0 4 14 15 31 24 30 15 44 15 98 -2 18 -5
22 -4 17 5 -5 8 0 14 13 18 12 3 21 12 21 19 0 8 7 14 15 14 8 0 15 6 15 13 0
18 63 44 113 46 27 1 20 19 -10 23 -27 3 -26 3 13 31 45 31 56 33 48 12 -4 -9
0 -15 10 -15 9 0 16 7 16 15 0 18 66 85 109 111 17 10 31 22 31 26 0 4 8 8 19
8 26 0 48 54 31 75 -10 13 -9 15 12 15 36 0 102 75 107 120 1 19 12 45 23 57
15 16 18 29 13 51 -4 22 -2 33 8 39 9 4 25 37 37 73 12 36 44 98 71 138 27 41
49 79 49 86 0 6 20 43 45 81 25 39 45 75 45 82 0 6 11 25 25 41 14 17 25 34
25 38 0 8 30 49 63 84 21 22 29 68 17 90 -13 24 -2 50 11 29 6 -9 9 1 9 28 0
23 -4 44 -9 47 -4 3 -11 19 -14 36 -4 16 -13 30 -21 30 -26 0 -37 94 -11 104
9 3 21 -4 31 -19 21 -32 62 -32 92 0 21 22 22 28 12 64 -6 22 -10 43 -9 48 4
24 -5 32 -41 38 -28 5 -40 12 -40 23 -1 28 -25 52 -46 46 -24 -6 -47 -62 -49
-119 -1 -22 -8 -55 -16 -73 -12 -29 -12 -37 4 -64 20 -35 14 -51 -8 -22 -13
17 -20 69 -17 115 1 9 -14 33 -33 54 -20 21 -43 60 -52 86 -19 52 -43 66 -43
25 0 -14 -4 -27 -9 -31 -11 -6 -14 11 -31 170 -7 61 -17 116 -22 123 -13 16 4
16 20 0 17 -17 11 63 -8 115 -16 42 -32 47 -48 15 -10 -22 -11 -21 -11 9 -1
17 4 35 9 38 6 3 10 33 10 65 0 48 4 63 22 80 19 17 21 24 10 40 -7 11 -12 31
-12 45 0 37 -20 30 -21 -7 l-1 -33 -10 34 c-12 42 -3 51 51 58 36 5 46 2 71
-22 65 -62 120 -231 71 -218 -10 3 -22 0 -25 -6 -4 -6 0 -11 11 -11 19 0 66
-67 77 -110 12 -44 51 -120 62 -120 11 0 33 38 59 104 8 22 17 37 19 35 10
-10 60 -138 68 -174 16 -70 28 -140 27 -155 -6 -99 -3 -135 12 -138 32 -6 41
126 13 180 -16 30 -15 41 2 142 4 24 2 41 -5 45 -7 5 -8 17 -2 38 5 17 5 36 0
44 -5 8 -9 26 -9 41 0 15 -4 30 -10 33 -5 3 -10 19 -10 36 0 24 -4 29 -24 29
-19 0 -25 -7 -30 -35 -4 -19 -11 -35 -16 -35 -12 0 -13 84 -1 108 30 60 36 80
34 130 -2 30 -8 61 -14 68 -7 8 -8 47 -4 111 3 54 8 190 10 302 2 113 9 218
15 234 5 17 10 54 10 83 0 46 4 55 31 78 59 50 122 30 184 -58 13 -18 16 -17
61 23 48 42 85 52 124 31 13 -7 21 -5 31 6 16 19 74 44 104 44 25 0 85 -53 85
-75 0 -26 20 -26 30 -1 6 18 17 26 32 25 13 0 17 -3 11 -6 -24 -9 -13 -23 18
-23 22 0 40 -9 60 -31 l29 -31 -7 -125 c-5 -106 -4 -125 8 -118 7 5 31 8 53 6
36 -2 38 -1 27 13 -12 14 -9 16 20 16 41 0 55 -9 60 -35 4 -17 13 -20 52 -21
60 -1 89 -26 107 -95 8 -28 20 -53 27 -56 7 -3 13 -16 13 -29 0 -46 27 -26 33
24 4 26 15 94 25 152 14 80 20 99 26 81 5 -14 3 -32 -4 -46 -24 -44 -6 -70 75
-111 48 -25 77 -35 83 -29 5 6 7 47 5 92 l-5 82 -26 -10 c-30 -12 -41 -5 -14
10 11 6 22 8 24 5 3 -2 12 6 21 20 16 23 15 26 -16 64 -39 49 -78 80 -140 115
-39 21 -49 23 -54 12 -9 -24 -26 -17 -19 8 3 12 1 36 -4 52 -5 17 -12 42 -14
56 -3 15 -17 31 -33 39 -16 8 -39 24 -53 37 -26 23 -77 34 -240 53 -41 4 -88
11 -103 15 -20 5 -33 2 -49 -11 -20 -19 -20 -19 -13 16 4 19 16 45 27 57 l20
21 -46 20 c-25 11 -54 18 -65 15 -33 -8 -40 26 -10 50 19 16 32 18 74 12 27
-4 65 -8 83 -10z m343 -555 c22 0 38 -40 28 -69 -8 -21 -13 -23 -52 -17 -62
10 -71 23 -51 73 16 40 18 41 38 28 11 -8 28 -15 37 -15z m-3146 -988 c-3 -41
-10 -81 -14 -90 -5 -10 -17 -36 -27 -59 -22 -51 -40 -57 -29 -10 10 39 9 61 0
110 -6 31 -4 42 13 60 11 12 26 42 33 66 12 40 13 41 22 20 5 -13 6 -57 2 -97z
m1880 -661 c3 -5 1 -12 -5 -16 -5 -3 -10 1 -10 9 0 18 6 21 15 7z m-2297 -416
c93 -33 194 -116 261 -215 62 -93 74 -127 79 -226 4 -82 2 -95 -22 -142 -47
-92 -120 -153 -241 -203 -52 -21 -75 -24 -170 -23 -102 1 -114 3 -171 31 -178
91 -270 291 -220 481 36 135 151 257 281 298 55 17 151 17 203 -1z m-2080
-207 c4 -36 -14 -68 -38 -68 -15 0 -20 7 -20 25 0 64 51 102 58 43z m3007 -18
c0 -20 6 -26 28 -28 18 -2 27 -9 27 -22 0 -10 4 -20 8 -22 14 -5 91 -160 191
-380 11 -26 21 -52 21 -57 0 -6 9 -28 20 -48 10 -20 17 -40 14 -45 -3 -4 -1
-8 4 -8 12 0 32 -45 32 -73 0 -12 7 -31 15 -41 19 -25 19 -36 0 -36 -8 0 -15
4 -15 9 0 5 -29 39 -65 76 -49 51 -65 75 -65 96 0 19 -5 29 -15 29 -15 0 -19
15 -15 58 1 13 -4 22 -13 22 -17 0 -30 40 -21 63 3 10 -2 18 -15 22 -13 4 -21
15 -21 28 0 13 -14 49 -31 82 -24 47 -29 66 -24 94 6 29 4 33 -8 23 -17 -15
-27 -6 -27 25 0 13 -7 26 -15 29 -8 3 -17 22 -21 41 -4 19 -13 37 -20 40 -8 3
-14 16 -14 30 0 20 4 24 22 21 17 -2 23 -10 23 -28z m-3065 -85 c0 -8 -4 -17
-10 -20 -6 -4 -10 5 -10 20 0 15 4 24 10 20 6 -3 10 -12 10 -20z m1 -120 c14
-73 5 -200 -16 -232 -24 -36 -34 -19 -22 34 12 54 13 115 2 141 -8 19 -6 112
2 125 10 17 23 -9 34 -68z m2983 -81 c8 -21 8 -54 -1 -54 -3 0 -14 7 -24 16
-15 13 -16 20 -6 35 14 23 23 24 31 3z m-116 -186 c88 -113 132 -176 132 -191
0 -17 -4 -18 -90 -38 -53 -11 -152 -51 -215 -85 -16 -9 -68 -37 -115 -61 -139
-72 -257 -153 -462 -316 -24 -19 -43 -27 -56 -23 -17 6 -79 90 -156 214 -15
24 -26 52 -24 62 3 18 184 163 300 240 67 45 273 154 348 184 25 9 54 22 65
26 29 14 154 38 196 39 32 1 41 -5 77 -51z m2479 -960 c-3 -13 -9 -45 -12 -73
-7 -51 -20 -105 -35 -140 -14 -35 -23 -59 -36 -100 -19 -63 -38 -109 -55 -135
-8 -14 -21 -45 -29 -70 -14 -44 -58 -125 -65 -118 -7 6 8 58 16 58 5 0 9 9 9
20 0 11 5 20 10 20 6 0 10 10 10 23 0 20 23 64 41 77 7 6 15 45 44 210 4 19
11 45 17 58 8 15 8 26 1 33 -7 7 -6 22 3 47 7 20 13 47 14 59 0 40 11 53 42
53 26 0 29 -3 25 -22z m-5287 -129 c0 -16 -4 -29 -10 -29 -5 0 -10 16 -10 36
0 21 4 33 10 29 6 -3 10 -19 10 -36z m3007 -259 c2 -8 -2 -22 -7 -30 -9 -13
-11 -13 -20 0 -16 25 -12 52 7 48 10 -2 19 -10 20 -18z m73 -97 c0 -19 -27
-16 -33 5 -2 9 -8 26 -12 37 -7 18 -5 17 18 -4 15 -14 27 -30 27 -38z m940
-223 c0 -5 -2 -10 -4 -10 -3 0 -8 5 -11 10 -3 6 -1 10 4 10 6 0 11 -4 11 -10z
m-90 -75 c0 -8 5 -15 10 -15 18 0 11 -29 -17 -73 -18 -29 -28 -37 -31 -27 -3
8 -13 26 -23 39 -22 28 -24 41 -6 41 6 1 21 12 32 25 23 28 35 32 35 10z m-57
-150 c-3 -9 -8 -14 -10 -11 -3 3 -2 9 2 15 9 16 15 13 8 -4z m-3720 -277 c3
-18 9 -64 12 -103 4 -38 13 -99 20 -135 8 -36 22 -130 31 -210 9 -80 21 -181
26 -225 5 -44 13 -116 18 -160 4 -44 11 -92 15 -107 5 -18 3 -28 -4 -28 -6 0
-11 9 -11 20 0 11 -4 28 -10 38 -21 38 -79 242 -90 317 -6 44 -15 96 -20 115
-5 19 -14 109 -21 200 -9 130 -8 179 2 237 7 40 16 73 20 73 4 0 9 -15 12 -32z
m2777 -988 c70 -12 371 -30 492 -30 51 0 116 -6 145 -12 l53 -13 0 -369 0
-368 -28 5 c-16 3 -107 11 -203 17 -96 5 -239 15 -319 20 -80 6 -188 10 -240
10 -52 0 -152 5 -223 11 -98 9 -175 9 -335 0 -114 -7 -227 -16 -252 -21 -25
-5 -85 -11 -133 -13 l-89 -4 5 111 c9 191 37 489 55 566 7 34 10 35 57 38 27
2 56 9 64 15 8 7 42 13 75 13 92 2 459 34 465 40 8 8 344 -5 411 -16z m-1754
-623 c2 -2 1 -24 -2 -49 l-6 -46 -97 -11 c-53 -7 -116 -17 -141 -23 -50 -12
-539 -17 -546 -6 -3 4 6 32 20 62 l25 54 228 6 c125 3 257 9 293 15 58 8 217
7 226 -2z"/>
<path d="M9688 8545 c-2 -2 -89 -6 -193 -9 -221 -6 -322 -14 -350 -26 -21 -9
-168 -21 -245 -20 -25 0 -40 -3 -33 -7 6 -5 -23 -7 -65 -6 -50 1 -68 -1 -52
-6 21 -6 17 -9 -30 -15 -30 -4 -73 -13 -94 -19 -31 -9 -41 -8 -44 1 -2 7 -8
10 -13 6 -5 -3 -9 0 -9 5 0 6 -9 11 -20 11 -11 0 -20 -4 -20 -10 0 -5 9 -10
19 -10 29 0 36 -19 9 -24 -13 -3 -36 -8 -53 -11 -16 -4 -45 -6 -63 -6 -20 1
-44 -7 -59 -19 -14 -11 -34 -20 -44 -20 -11 0 -27 -4 -37 -9 -9 -5 -36 -14
-59 -20 -47 -13 -45 -9 -63 -121 -6 -36 -15 -78 -20 -95 -5 -16 -18 -79 -30
-140 -12 -60 -26 -126 -31 -145 -5 -19 -14 -66 -19 -105 -5 -38 -14 -99 -20
-135 -12 -72 -27 -184 -41 -305 -38 -312 -32 -862 11 -1100 5 -27 14 -81 20
-120 6 -38 15 -86 19 -105 5 -19 16 -68 26 -107 49 -213 158 -513 185 -513 40
0 343 210 455 315 l43 41 -2 149 -3 150 -221 5 -221 5 -41 43 c-22 24 -40 48
-40 53 0 5 -10 9 -22 9 -33 0 -85 35 -108 72 -13 21 -20 51 -20 82 0 65 30
109 92 138 30 13 51 31 58 48 6 15 27 43 46 61 l35 34 402 5 402 5 71 41 c145
84 315 117 492 95 118 -14 193 -38 284 -91 l70 -40 582 2 581 3 -1 240 c-1
132 -5 278 -8 325 -12 160 -35 365 -50 445 -8 44 -22 121 -30 170 -43 240 -77
405 -97 470 -6 22 -12 54 -12 71 -1 32 -14 40 -104 63 -18 5 -49 19 -69 30
-22 13 -41 18 -46 13 -10 -10 -58 -4 -58 8 0 4 -18 8 -39 8 -22 0 -52 7 -68
15 -15 8 -48 18 -73 22 -25 4 -69 16 -98 27 -42 16 -61 18 -97 10 -44 -9 -91
-6 -110 8 -5 5 -48 8 -94 9 -47 1 -87 5 -90 10 -4 5 -33 11 -66 14 -187 18
-302 26 -307 22z m-1150 -790 c7 -33 17 -78 22 -100 5 -22 18 -85 29 -140 11
-55 27 -127 36 -160 9 -33 19 -74 24 -90 4 -17 13 -40 19 -52 7 -12 12 -31 12
-42 0 -12 4 -21 9 -21 13 0 22 108 25 295 l3 160 78 3 c62 2 79 0 89 -13 11
-15 17 -14 63 15 69 43 93 36 94 -28 0 -40 2 -44 10 -23 5 13 7 32 4 42 -4 11
-2 19 4 19 6 0 11 -4 11 -9 0 -6 25 1 55 15 45 19 72 24 140 24 101 0 118 -11
113 -74 -3 -39 -5 -41 -33 -39 -122 8 -144 6 -151 -12 -8 -21 27 -50 85 -71
25 -9 62 -29 82 -45 l35 -27 18 66 c19 71 43 112 90 152 52 44 78 53 156 53
107 0 144 -22 190 -111 12 -23 26 -45 31 -47 15 -10 22 45 12 96 l-10 50 74
-2 c71 -2 95 -11 105 -40 2 -7 18 -3 42 12 51 30 118 31 171 3 36 -19 41 -26
56 -85 16 -63 42 -386 32 -402 -8 -13 -173 -6 -173 7 2 103 -12 351 -20 366
-13 24 -47 26 -72 3 -15 -13 -18 -31 -17 -107 0 -50 4 -129 9 -176 4 -47 6
-87 4 -89 -8 -9 -123 -13 -158 -7 l-35 7 3 92 c5 124 -3 210 -19 197 -12 -10
-174 -74 -232 -91 -41 -12 -43 -40 -7 -76 23 -23 32 -25 83 -21 37 3 65 10 75
21 22 22 28 21 53 -2 12 -11 24 -17 27 -14 3 4 6 -3 6 -13 0 -22 -33 -50 -99
-83 -62 -32 -158 -31 -232 4 -62 28 -121 85 -134 130 l-9 30 -4 -37 c-4 -42
-49 -94 -108 -124 -30 -14 -60 -19 -129 -19 -116 0 -146 14 -158 73 -5 24 -5
54 0 67 l8 24 46 -28 c85 -53 169 -50 169 7 0 24 -9 31 -70 60 -95 45 -128 75
-141 128 -10 38 -15 44 -38 44 -32 -1 -72 -35 -90 -78 -9 -21 -14 -79 -15
-165 l-1 -133 -197 -2 c-227 -2 -223 -3 -234 84 l-7 56 -84 -4 c-92 -3 -95 -6
-114 -73 -6 -22 -13 -46 -15 -52 -4 -15 -149 -18 -158 -4 -3 5 9 51 28 103 62
171 95 258 103 271 4 6 9 20 10 31 2 10 12 46 24 80 11 33 23 84 26 111 8 66
16 75 72 76 25 0 64 4 86 9 22 4 54 7 70 7 28 -2 31 -6 43 -62z m2457 26 c11
-17 19 -77 35 -256 12 -135 25 -240 39 -323 7 -35 9 -67 6 -72 -7 -12 -155
-13 -171 -2 -7 4 -14 66 -18 155 -4 81 -11 159 -16 173 -6 14 -10 49 -10 79 0
30 -4 65 -9 78 -6 14 -12 45 -16 68 -3 24 -8 60 -11 81 -7 44 2 47 96 40 45
-3 68 -10 75 -21z m-326 -180 c105 -33 133 -87 150 -295 6 -72 16 -127 25
-141 22 -33 3 -45 -75 -45 -46 0 -70 4 -79 15 -10 13 -17 12 -51 -5 -45 -23
-116 -26 -162 -6 -18 7 -49 32 -71 55 -36 40 -38 45 -32 88 7 50 38 99 86 133
34 24 129 60 159 60 17 0 18 3 8 25 -20 41 -87 50 -152 19 -51 -24 -65 -14
-65 45 0 48 1 49 38 59 61 16 156 13 221 -7z"/>
<path d="M9621 7543 c-15 -13 -23 -34 -28 -70 -7 -62 -1 -64 71 -33 39 18 46
25 46 48 -1 31 -31 72 -53 72 -8 0 -24 -8 -36 -17z"/>
<path d="M8352 7488 c-13 -29 -26 -65 -29 -80 -5 -25 -3 -28 23 -29 32 -1 78
2 81 5 2 1 -2 16 -7 32 -5 16 -14 50 -21 77 -6 26 -14 47 -18 47 -3 0 -16 -24
-29 -52z"/>
<path d="M9880 7459 c0 -5 5 -7 10 -4 6 3 10 8 10 11 0 2 -4 4 -10 4 -5 0 -10
-5 -10 -11z"/>
<path d="M10594 7350 c-45 -20 -60 -52 -40 -91 17 -34 41 -45 73 -33 24 8 28
16 31 52 2 23 -1 42 -7 42 -5 0 -11 11 -13 24 l-3 23 -41 -17z"/>
<path d="M10390 8515 c7 -8 16 -15 21 -15 5 0 9 7 9 15 0 9 -9 15 -21 15 -18
0 -19 -2 -9 -15z"/>
<path d="M8515 8480 c4 -6 11 -8 16 -5 14 9 11 15 -7 15 -8 0 -12 -5 -9 -10z"/>
<path d="M8115 8310 c-8 -13 25 -13 45 0 12 8 9 10 -12 10 -15 0 -30 -4 -33
-10z"/>
<path d="M11030 8310 c0 -5 5 -10 10 -10 6 0 10 5 10 10 0 6 -4 10 -10 10 -5
0 -10 -4 -10 -10z"/>
<path d="M7991 8240 c-29 -11 -59 -24 -66 -30 -6 -5 -20 -11 -31 -13 -10 -2
-29 -8 -41 -15 -12 -7 -28 -12 -35 -12 -20 0 -36 -32 -49 -101 -6 -35 -14 -71
-17 -79 -3 -8 -13 -51 -23 -95 -9 -44 -23 -98 -29 -120 -10 -36 -25 -108 -34
-174 -2 -13 -7 -26 -12 -30 -5 -3 -10 -40 -11 -81 -2 -41 -7 -122 -13 -180
-28 -268 -33 -730 -10 -800 4 -14 14 -92 21 -173 7 -81 16 -150 21 -153 4 -3
8 -20 8 -38 0 -32 23 -124 39 -156 5 -8 14 -40 20 -70 7 -30 22 -85 33 -122
11 -37 19 -70 19 -73 -2 -11 43 -121 55 -135 7 -9 25 -53 40 -98 14 -46 32
-88 38 -95 7 -7 15 -19 19 -27 4 -8 23 -44 42 -78 19 -35 35 -70 35 -78 0 -19
53 -18 90 1 17 9 56 22 87 29 32 8 50 15 41 15 -9 1 -25 16 -37 34 -43 70
-145 359 -212 597 -19 70 -62 310 -61 345 0 11 -4 40 -9 65 -27 135 -27 784 0
960 6 36 17 126 26 200 15 134 34 258 55 355 6 28 12 62 15 77 7 43 61 291 76
348 6 22 -28 22 -90 0z"/>
<path d="M11110 8234 c0 -15 4 -41 9 -58 6 -17 17 -62 26 -101 10 -38 21 -88
26 -110 12 -49 39 -189 45 -230 5 -43 33 -229 44 -300 5 -33 11 -73 14 -90 14
-96 28 -382 29 -588 0 -131 3 -239 6 -241 3 -2 65 -6 136 -7 l130 -4 7 45 c11
72 9 648 -2 652 -5 2 -12 35 -15 73 -12 150 -17 190 -25 200 -4 6 -8 30 -8 55
-2 63 -12 123 -24 137 -6 7 -7 21 -2 30 4 10 8 29 10 43 1 14 0 19 -3 13 -11
-29 -21 -9 -33 65 -8 42 -13 83 -11 90 1 6 -3 12 -9 12 -5 0 -10 16 -10 35 0
19 -4 35 -9 35 -5 0 -7 8 -4 19 3 10 0 22 -6 25 -6 4 -11 20 -11 37 0 16 -4
29 -10 29 -5 0 -10 13 -10 29 0 25 -6 30 -47 45 -79 29 -114 49 -100 59 7 5 1
7 -18 6 -27 -2 -50 2 -107 18 -14 3 -18 -2 -18 -23z"/>
<path d="M11424 8149 c-3 -6 -2 -15 3 -20 5 -5 9 -1 10 11 2 22 -2 25 -13 9z"/>
<path d="M11556 7821 c-4 -7 -5 -15 -2 -18 9 -9 19 4 14 18 -4 11 -6 11 -12 0z"/>
<path d="M11642 7250 c0 -19 2 -27 5 -17 2 9 2 25 0 35 -3 9 -5 1 -5 -18z"/>
<path d="M9500 6620 c0 -5 14 -10 30 -10 17 0 30 5 30 10 0 6 -13 10 -30 10
-16 0 -30 -4 -30 -10z"/>
<path d="M9686 6621 c-6 -10 42 -21 83 -20 l26 1 -25 7 c-57 17 -79 21 -84 12z"/>
<path d="M9310 6580 c-11 -7 -7 -10 18 -10 20 0 31 4 27 10 -8 13 -26 13 -45
0z"/>
<path d="M9835 6580 c-4 -6 3 -10 14 -10 25 0 27 6 6 13 -8 4 -17 2 -20 -3z"/>
<path d="M9260 6550 c0 -5 5 -10 10 -10 6 0 10 5 10 10 0 6 -4 10 -10 10 -5 0
-10 -4 -10 -10z"/>
<path d="M9518 6544 c22 -15 22 -19 22 -241 0 -125 3 -223 7 -219 4 3 7 103 8
220 1 188 -1 216 -16 235 -10 12 -23 21 -30 21 -8 0 -3 -7 9 -16z"/>
<path d="M9650 6550 c0 -5 5 -10 10 -10 6 0 10 5 10 10 0 6 -4 10 -10 10 -5 0
-10 -4 -10 -10z"/>
<path d="M9433 6533 c9 -2 25 -2 35 0 9 3 1 5 -18 5 -19 0 -27 -2 -17 -5z"/>
<path d="M9335 6510 c-3 -5 1 -10 9 -10 8 0 18 5 21 10 3 6 -1 10 -9 10 -8 0
-18 -4 -21 -10z"/>
<path d="M9150 6495 c-17 -10 -20 -14 -9 -15 9 0 22 7 29 15 15 18 12 18 -20
0z"/>
<path d="M9980 6500 c0 -5 5 -10 10 -10 6 0 10 5 10 10 0 6 -4 10 -10 10 -5 0
-10 -4 -10 -10z"/>
<path d="M8326 6487 c-11 -8 -17 -20 -14 -27 3 -10 8 -9 20 4 15 14 54 16 340
16 191 0 329 4 338 10 10 6 -102 10 -326 10 -268 0 -344 -3 -358 -13z"/>
<path d="M11198 6493 c7 -3 16 -2 19 1 4 3 -2 6 -13 5 -11 0 -14 -3 -6 -6z"/>
<path d="M9481 6434 c0 -11 3 -14 6 -6 3 7 2 16 -1 19 -3 4 -6 -2 -5 -13z"/>
<path d="M9698 6444 c-13 -12 -10 -312 3 -319 6 -4 11 -5 12 -4 6 12 -9 329
-15 323z"/>
<path d="M9060 6415 c-11 -13 -10 -14 4 -9 9 3 16 10 16 15 0 13 -6 11 -20 -6z"/>
<path d="M9975 6423 c11 -3 30 -14 43 -26 12 -11 22 -16 22 -11 0 17 -40 44
-63 43 -20 -1 -20 -2 -2 -6z"/>
<path d="M9368 6403 c7 -3 16 -2 19 1 4 3 -2 6 -13 5 -11 0 -14 -3 -6 -6z"/>
<path d="M9790 6400 c0 -5 7 -7 15 -4 8 4 15 8 15 10 0 2 -7 4 -15 4 -8 0 -15
-4 -15 -10z"/>
<path d="M8260 6368 c0 -19 2 -20 10 -8 13 19 13 30 0 30 -5 0 -10 -10 -10
-22z"/>
<path d="M9140 6380 c0 -5 5 -10 10 -10 6 0 10 5 10 10 0 6 -4 10 -10 10 -5 0
-10 -4 -10 -10z"/>
<path d="M9110 6360 c-9 -6 -10 -10 -3 -10 6 0 15 5 18 10 8 12 4 12 -15 0z"/>
<path d="M8175 6340 c-4 -6 8 -10 29 -10 20 0 36 5 36 10 0 6 -13 10 -29 10
-17 0 -33 -4 -36 -10z"/>
<path d="M8982 6315 c-6 -14 -7 -25 -2 -25 9 0 25 39 18 46 -3 2 -10 -7 -16
-21z"/>
<path d="M9185 6290 c-3 -5 -1 -10 4 -10 6 0 11 5 11 10 0 6 -2 10 -4 10 -3 0
-8 -4 -11 -10z"/>
<path d="M10122 6260 c0 -14 2 -19 5 -12 2 6 2 18 0 25 -3 6 -5 1 -5 -13z"/>
<path d="M9124 6225 c-9 -21 -2 -26 13 -10 8 9 9 16 3 20 -6 3 -13 -1 -16 -10z"/>
<path d="M10340 6220 c0 -5 5 -10 10 -10 6 0 10 5 10 10 0 6 -4 10 -10 10 -5
0 -10 -4 -10 -10z"/>
<path d="M10055 6210 c-3 -5 -2 -10 4 -10 5 0 13 5 16 10 3 6 2 10 -4 10 -5 0
-13 -4 -16 -10z"/>
<path d="M10250 6207 c0 -10 10 -31 22 -47 13 -18 21 -42 20 -64 -1 -35 11
-55 22 -37 6 9 -23 112 -34 121 -4 3 -12 14 -18 25 -10 18 -11 18 -12 2z"/>
<path d="M8900 6199 c0 -5 5 -7 10 -4 6 3 10 8 10 11 0 2 -4 4 -10 4 -5 0 -10
-5 -10 -11z"/>
<path d="M8967 6173 c-4 -20 -4 -39 -2 -42 3 -2 5 3 5 12 0 10 5 17 10 17 12
0 13 37 1 44 -5 3 -11 -11 -14 -31z"/>
<path d="M9030 6200 c20 -13 33 -13 25 0 -3 6 -14 10 -23 10 -15 0 -15 -2 -2
-10z"/>
<path d="M8185 6180 c3 -5 8 -10 11 -10 2 0 4 5 4 10 0 6 -5 10 -11 10 -5 0
-7 -4 -4 -10z"/>
<path d="M11450 6174 c-8 -2 -54 -6 -102 -9 -88 -7 -88 -7 -88 -34 0 -15 -3
-31 -7 -35 -5 -4 -14 -42 -20 -84 -7 -42 -15 -86 -18 -97 -2 -11 -11 -47 -19
-80 -17 -76 -91 -290 -144 -420 -62 -152 -151 -320 -241 -453 -31 -46 -67
-101 -81 -121 -14 -21 -38 -54 -53 -72 -257 -312 -293 -350 -488 -515 -183
-155 -255 -210 -399 -308 -36 -24 -74 -53 -85 -63 -11 -11 -29 -22 -39 -26
-29 -11 -12 -20 23 -12 17 4 31 13 31 21 0 12 19 18 57 17 7 0 11 4 10 9 -2 9
97 68 115 68 4 0 21 13 39 30 18 16 61 44 96 62 35 18 85 52 110 75 25 24 49
43 54 43 14 0 99 61 99 71 0 5 5 9 12 9 6 0 22 9 34 21 14 13 27 18 36 13 22
-14 38 -13 38 2 0 8 -6 11 -16 7 -14 -5 -14 -3 -5 13 20 35 36 51 69 68 21 11
32 13 32 5 0 -8 4 -8 14 1 8 6 13 17 10 24 -3 7 5 18 18 24 13 6 17 11 9 11
-8 1 8 20 35 43 66 57 134 127 134 137 0 4 9 16 20 26 11 10 20 13 20 7 0 -7
5 -12 11 -12 6 0 9 7 5 15 -5 14 12 37 96 130 51 55 118 144 118 154 0 6 12
25 28 41 35 39 44 50 64 85 10 17 22 29 28 27 6 -1 10 6 9 15 -3 22 29 91 54
116 10 10 37 58 59 105 84 185 111 233 121 220 6 -9 7 -7 3 6 -8 22 11 87 29
101 6 6 14 30 17 55 3 25 12 61 20 80 9 19 19 44 23 55 14 42 65 249 65 266 0
10 7 25 16 34 9 9 15 17 13 19 -7 5 -73 13 -89 10z"/>
<path d="M10915 6160 c3 -5 15 -10 25 -10 10 0 22 5 25 10 4 6 -7 10 -25 10
-18 0 -29 -4 -25 -10z"/>
<path d="M11008 6163 c7 -3 16 -2 19 1 4 3 -2 6 -13 5 -11 0 -14 -3 -6 -6z"/>
<path d="M8780 6141 c0 -12 5 -21 10 -21 6 0 10 6 10 14 0 8 -4 18 -10 21 -5
3 -10 -3 -10 -14z"/>
<path d="M9385 6150 c3 -5 8 -10 11 -10 2 0 4 5 4 10 0 6 -5 10 -11 10 -5 0
-7 -4 -4 -10z"/>
<path d="M9830 6149 c0 -5 5 -7 10 -4 6 3 10 8 10 11 0 2 -4 4 -10 4 -5 0 -10
-5 -10 -11z"/>
<path d="M10085 6150 c-3 -5 -1 -10 4 -10 6 0 11 5 11 10 0 6 -2 10 -4 10 -3
0 -8 -4 -11 -10z"/>
<path d="M10190 6142 c0 -12 19 -26 26 -19 2 2 -2 10 -11 17 -9 8 -15 8 -15 2z"/>
<path d="M10391 6114 c0 -11 3 -14 6 -6 3 7 2 16 -1 19 -3 4 -6 -2 -5 -13z"/>
<path d="M8760 6091 l0 -31 -195 2 c-108 0 -198 -2 -202 -6 -3 -3 87 -6 200
-6 114 0 207 3 208 8 0 4 2 17 5 29 2 12 -1 25 -6 28 -6 4 -10 -7 -10 -24z"/>
<path d="M9743 6109 c14 -8 22 -8 30 0 8 8 3 11 -18 11 -26 -1 -28 -2 -12 -11z"/>
<path d="M10040 6109 c0 -5 5 -7 10 -4 6 3 10 8 10 11 0 2 -4 4 -10 4 -5 0
-10 -5 -10 -11z"/>
<path d="M9040 6094 c0 -8 5 -12 10 -9 6 3 10 10 10 16 0 5 -4 9 -10 9 -5 0
-10 -7 -10 -16z"/>
<path d="M10000 6099 c0 -5 5 -7 10 -4 6 3 10 8 10 11 0 2 -4 4 -10 4 -5 0
-10 -5 -10 -11z"/>
<path d="M10226 6075 c8 -50 14 -58 14 -19 0 16 -5 36 -11 44 -7 11 -8 4 -3
-25z"/>
<path d="M9875 6090 c-3 -6 1 -7 9 -4 18 7 21 14 7 14 -6 0 -13 -4 -16 -10z"/>
<path d="M10899 6096 c-2 -2 -24 -6 -48 -9 -34 -4 -49 -12 -68 -35 -44 -57
-98 -78 -286 -112 -86 -16 -87 -16 -87 -68 -1 -252 -135 -515 -335 -657 -68
-48 -141 -87 -200 -104 -22 -7 -49 -16 -60 -21 -69 -28 -120 -35 -242 -35 -91
0 -136 4 -145 13 -6 6 -24 12 -39 12 -15 0 -30 4 -33 9 -3 5 -22 12 -43 16
-85 16 -265 132 -340 220 l-34 40 -37 -22 c-129 -76 -314 -160 -400 -182 -23
-6 -60 -16 -82 -21 -24 -7 -40 -17 -40 -26 0 -42 166 -298 298 -459 159 -194
542 -544 718 -655 13 -8 61 -41 108 -73 82 -56 109 -66 120 -48 4 5 45 35 94
67 48 31 89 60 92 63 3 4 39 31 80 62 41 30 106 79 145 109 76 60 435 409 435
423 0 5 26 39 59 75 140 160 348 509 433 727 10 28 28 69 38 92 11 24 20 47
20 53 0 6 4 18 9 28 5 9 19 53 31 97 12 44 28 100 35 125 8 25 19 77 25 115 6
39 15 81 20 95 5 14 11 40 14 58 l6 32 -129 0 c-70 0 -130 -2 -132 -4z"/>
<path d="M9960 6064 c0 -14 3 -15 18 -3 9 7 19 15 21 16 2 2 -5 3 -17 3 -14 0
-22 -6 -22 -16z"/>
<path d="M9265 6050 c3 -5 8 -10 11 -10 2 0 4 5 4 10 0 6 -5 10 -11 10 -5 0
-7 -4 -4 -10z"/>
<path d="M9830 6050 c0 -5 7 -10 15 -10 8 0 15 5 15 10 0 6 -7 10 -15 10 -8 0
-15 -4 -15 -10z"/>
<path d="M10120 6045 c0 -8 5 -15 10 -15 6 0 10 7 10 15 0 8 -4 15 -10 15 -5
0 -10 -7 -10 -15z"/>
<path d="M9678 6043 c7 -3 16 -2 19 1 4 3 -2 6 -13 5 -11 0 -14 -3 -6 -6z"/>
<path d="M9925 6030 c-3 -5 -2 -10 4 -10 5 0 13 5 16 10 3 6 2 10 -4 10 -5 0
-13 -4 -16 -10z"/>
<path d="M10638 6033 c12 -2 30 -2 40 0 9 3 -1 5 -23 4 -22 0 -30 -2 -17 -4z"/>
<path d="M11562 6015 c0 -16 2 -22 5 -12 2 9 2 23 0 30 -3 6 -5 -1 -5 -18z"/>
<path d="M9720 6022 c0 -6 10 -12 23 -16 31 -8 37 -7 37 5 0 5 -4 7 -10 4 -5
-3 -19 -1 -30 5 -11 6 -20 7 -20 2z"/>
<path d="M10323 5980 c0 -30 2 -43 4 -27 2 15 2 39 0 55 -2 15 -4 2 -4 -28z"/>
<path d="M8847 6014 c-4 -4 -7 -17 -7 -28 1 -19 1 -20 11 -3 11 19 8 43 -4 31z"/>
<path d="M9190 6010 c-9 -6 -10 -10 -3 -10 6 0 15 5 18 10 8 12 4 12 -15 0z"/>
<path d="M10145 6010 c3 -5 8 -10 11 -10 2 0 4 5 4 10 0 6 -5 10 -11 10 -5 0
-7 -4 -4 -10z"/>
<path d="M9031 5994 c0 -11 3 -14 6 -6 3 7 2 16 -1 19 -3 4 -6 -2 -5 -13z"/>
<path d="M9850 5990 c-8 -5 -10 -10 -5 -10 6 0 17 5 25 10 8 5 11 10 5 10 -5
0 -17 -5 -25 -10z"/>
<path d="M11516 5992 c-2 -4 -1 -14 5 -22 7 -12 9 -10 9 8 0 23 -5 28 -14 14z"/>
<path d="M9389 5945 c-6 -40 -4 -53 7 -43 3 3 4 23 2 44 l-3 39 -6 -40z"/>
<path d="M9965 5970 c-3 -5 1 -10 9 -10 9 0 16 5 16 10 0 6 -4 10 -9 10 -6 0
-13 -4 -16 -10z"/>
<path d="M10257 5948 c-3 -18 -1 -37 4 -42 5 -6 9 7 9 32 0 50 -6 54 -13 10z"/>
<path d="M10134 5950 c-6 -6 -30 -14 -55 -18 -39 -7 -41 -9 -17 -14 16 -3 40
1 54 8 14 8 33 14 41 14 8 0 11 5 8 10 -8 13 -18 13 -31 0z"/>
<path d="M8827 5943 c-11 -10 -8 -143 3 -143 6 0 10 32 10 75 0 75 -1 81 -13
68z"/>
<path d="M9293 5875 c0 -27 2 -38 4 -22 2 15 2 37 0 50 -2 12 -4 0 -4 -28z"/>
<path d="M9530 5910 c0 -5 5 -10 10 -10 6 0 10 5 10 10 0 6 -4 10 -10 10 -5 0
-10 -4 -10 -10z"/>
<path d="M9865 5910 c-8 -13 8 -18 29 -10 19 6 19 7 -2 12 -12 4 -24 2 -27 -2z"/>
<path d="M9938 5903 c12 -2 32 -2 45 0 12 2 2 4 -23 4 -25 0 -35 -2 -22 -4z"/>
<path d="M10326 5868 c5 -58 14 -61 14 -5 0 26 -4 47 -9 47 -4 0 -7 -19 -5
-42z"/>
<path d="M9641 5884 c0 -11 3 -14 6 -6 3 7 2 16 -1 19 -3 4 -6 -2 -5 -13z"/>
<path d="M10167 5873 c-4 -3 -30 -7 -59 -9 -92 -5 -238 -28 -238 -36 0 -4 28
-25 61 -45 34 -21 87 -56 118 -79 66 -47 88 -57 97 -43 10 17 44 159 44 185 0
23 -12 38 -23 27z"/>
<path d="M10257 5873 c-7 -12 -2 -111 6 -119 4 -4 7 23 7 59 0 63 -3 77 -13
60z"/>
<path d="M9386 5825 c-9 -26 -7 -32 5 -12 6 10 9 21 6 23 -2 3 -7 -2 -11 -11z"/>
<path d="M9544 5825 c25 -19 72 -19 80 0 3 8 1 15 -4 15 -6 0 -10 -4 -10 -10
0 -5 -6 -8 -12 -6 -7 3 -26 7 -43 10 -28 6 -29 5 -11 -9z"/>
<path d="M9240 5820 c-12 -8 -9 -10 13 -10 15 0 27 5 27 10 0 13 -20 13 -40 0z"/>
<path d="M9310 5770 c0 -5 7 -10 15 -10 8 0 15 5 15 10 0 6 -7 10 -15 10 -8 0
-15 -4 -15 -10z"/>
<path d="M9827 5773 c-9 -15 17 -23 34 -11 11 8 11 9 -3 5 -9 -3 -18 -1 -21 6
-2 8 -5 8 -10 0z"/>
<path d="M8840 5764 c0 -6 5 -15 11 -21 7 -7 15 -29 19 -50 l8 -38 1 38 c1 25
-6 45 -19 59 -11 12 -20 17 -20 12z"/>
<path d="M9410 5750 c0 -5 5 -10 10 -10 6 0 10 5 10 10 0 6 -4 10 -10 10 -5 0
-10 -4 -10 -10z"/>
<path d="M9733 5753 c-21 -8 -15 -22 7 -16 11 3 20 9 20 14 0 10 -8 10 -27 2z"/>
<path d="M9575 5730 c28 -12 45 -12 45 0 0 6 -15 10 -32 9 -28 0 -30 -2 -13
-9z"/>
<path d="M9233 5719 c-8 -8 -4 -18 13 -36 19 -21 28 -23 50 -16 15 5 29 15 30
21 1 7 0 8 -3 2 -2 -5 -13 -10 -22 -10 -21 0 -63 34 -54 44 3 3 4 6 2 6 -3 0
-10 -5 -16 -11z"/>
<path d="M9352 5714 c-7 -8 -8 -14 -3 -14 10 0 25 19 20 25 -2 1 -10 -3 -17
-11z"/>
<path d="M9680 5710 c0 -5 4 -10 9 -10 6 0 13 5 16 10 3 6 -1 10 -9 10 -9 0
-16 -4 -16 -10z"/>
<path d="M9505 5691 c-3 -5 -1 -12 4 -15 5 -3 11 1 15 9 6 16 -9 21 -19 6z"/>
<path d="M9345 5640 c-33 -21 -84 -56 -114 -77 -30 -21 -63 -42 -73 -47 -31
-16 -20 -42 41 -97 50 -47 93 -73 176 -110 28 -13 113 -27 120 -21 3 3 5 82 5
176 l0 171 -40 23 c-21 12 -43 22 -47 21 -4 0 -35 -18 -68 -39z"/>
<path d="M9708 5653 l-38 -26 0 -168 c0 -92 3 -170 8 -173 16 -9 106 15 175
48 47 23 92 55 130 93 l59 58 -35 30 c-37 32 -245 165 -256 164 -3 0 -23 -12
-43 -26z"/>
<path d="M9850 5670 c8 -5 20 -10 25 -10 6 0 3 5 -5 10 -8 5 -19 10 -25 10 -5
0 -3 -5 5 -10z"/>
<path d="M10002 5670 c3 -8 19 -22 37 -31 18 -8 37 -22 42 -30 9 -12 10 -12 7
1 -2 8 -19 23 -38 32 -18 9 -37 23 -42 30 -7 10 -9 10 -6 -2z"/>
<path d="M9540 5446 c0 -182 -2 -217 -16 -230 -8 -9 -11 -16 -5 -16 6 0 14 8
20 18 11 21 20 442 9 442 -4 0 -8 -96 -8 -214z"/>
<path d="M9600 5461 c3 -110 9 -203 13 -207 5 -5 6 70 3 166 -3 96 -5 190 -5
208 -1 17 -4 32 -8 32 -5 0 -6 -90 -3 -199z"/>
<path d="M9950 5656 c0 -2 7 -9 15 -16 12 -10 15 -10 15 4 0 9 -7 16 -15 16
-8 0 -15 -2 -15 -4z"/>
<path d="M10205 5650 c-3 -5 -1 -10 4 -10 6 0 11 5 11 10 0 6 -2 10 -4 10 -3
0 -8 -4 -11 -10z"/>
<path d="M9215 5640 c3 -5 1 -10 -4 -10 -6 0 -11 -5 -11 -10 0 -6 8 -5 20 2
24 15 26 28 4 28 -8 0 -12 -4 -9 -10z"/>
<path d="M10281 5604 c0 -11 3 -14 6 -6 3 7 2 16 -1 19 -3 4 -6 -2 -5 -13z"/>
<path d="M9980 5590 c8 -5 20 -10 25 -10 6 0 3 5 -5 10 -8 5 -19 10 -25 10 -5
0 -3 -5 5 -10z"/>
<path d="M9130 5580 c-13 -8 -13 -10 2 -10 9 0 20 5 23 10 8 13 -5 13 -25 0z"/>
<path d="M8908 5553 c5 -21 7 -23 10 -9 2 10 0 22 -6 28 -6 6 -7 0 -4 -19z"/>
<path d="M8801 5554 c0 -11 3 -14 6 -6 3 7 2 16 -1 19 -3 4 -6 -2 -5 -13z"/>
<path d="M10132 5554 c15 -16 18 -16 33 0 15 15 14 16 -16 16 -31 0 -32 -1
-17 -16z"/>
<path d="M8655 5541 c-6 -11 9 -23 19 -14 9 9 7 23 -3 23 -6 0 -12 -4 -16 -9z"/>
<path d="M8625 5500 c-3 -5 -1 -10 4 -10 6 0 11 5 11 10 0 6 -2 10 -4 10 -3 0
-8 -4 -11 -10z"/>
<path d="M10111 5454 c0 -11 3 -14 6 -6 3 7 2 16 -1 19 -3 4 -6 -2 -5 -13z"/>
<path d="M8560 5450 c0 -5 4 -10 9 -10 6 0 13 5 16 10 3 6 -1 10 -9 10 -9 0
-16 -4 -16 -10z"/>
<path d="M8850 5447 c0 -19 16 -31 24 -18 3 5 -1 14 -9 21 -12 10 -15 10 -15
-3z"/>
<path d="M10200 5450 c0 -5 5 -10 10 -10 6 0 10 5 10 10 0 6 -4 10 -10 10 -5
0 -10 -4 -10 -10z"/>
<path d="M10180 5419 c0 -5 5 -7 10 -4 6 3 10 8 10 11 0 2 -4 4 -10 4 -5 0
-10 -5 -10 -11z"/>
<path d="M8876 5403 c-6 -14 -5 -15 5 -6 7 7 10 15 7 18 -3 3 -9 -2 -12 -12z"/>
<path d="M8488 5403 c6 -2 18 -2 25 0 6 3 1 5 -13 5 -14 0 -19 -2 -12 -5z"/>
<path d="M8453 5383 c-15 -5 -17 -23 -4 -23 5 0 11 7 15 15 3 8 4 15 3 14 -1
0 -8 -3 -14 -6z"/>
<path d="M10120 5349 c0 -5 5 -7 10 -4 6 3 10 8 10 11 0 2 -4 4 -10 4 -5 0
-10 -5 -10 -11z"/>
<path d="M8778 5338 c9 -9 15 -9 24 0 9 9 7 12 -12 12 -19 0 -21 -3 -12 -12z"/>
<path d="M9975 5330 c-13 -6 -15 -9 -5 -9 8 0 22 4 30 9 18 12 2 12 -25 0z"/>
<path d="M8325 5311 c-23 -12 -26 -16 -13 -19 10 -2 25 4 34 13 22 22 15 24
-21 6z"/>
<path d="M8735 5320 c3 -5 10 -10 16 -10 5 0 9 5 9 10 0 6 -7 10 -16 10 -8 0
-12 -4 -9 -10z"/>
<path d="M9205 5310 c10 -11 20 -20 23 -20 3 0 -3 9 -13 20 -10 11 -20 20 -23
20 -3 0 3 -9 13 -20z"/>
<path d="M8680 5304 c0 -8 5 -12 10 -9 6 4 8 11 5 16 -9 14 -15 11 -15 -7z"/>
<path d="M9085 5310 c3 -5 8 -10 11 -10 2 0 4 5 4 10 0 6 -5 10 -11 10 -5 0
-7 -4 -4 -10z"/>
<path d="M10053 5313 c-23 -9 -14 -25 10 -18 31 10 45 25 22 24 -11 0 -26 -3
-32 -6z"/>
<path d="M9247 5289 c7 -7 15 -10 18 -7 3 3 -2 9 -12 12 -14 6 -15 5 -6 -5z"/>
<path d="M8600 5255 c0 -8 2 -15 4 -15 2 0 6 7 10 15 3 8 1 15 -4 15 -6 0 -10
-7 -10 -15z"/>
<path d="M9860 5260 c0 -5 5 -10 10 -10 6 0 10 5 10 10 0 6 -4 10 -10 10 -5 0
-10 -4 -10 -10z"/>
<path d="M9315 5250 c-3 -5 -1 -10 4 -10 6 0 11 5 11 10 0 6 -2 10 -4 10 -3 0
-8 -4 -11 -10z"/>
<path d="M9828 5243 c7 -3 16 -2 19 1 4 3 -2 6 -13 5 -11 0 -14 -3 -6 -6z"/>
<path d="M8507 5229 c8 -8 19 -8 40 -1 28 10 28 10 -11 11 -29 1 -37 -2 -29
-10z"/>
<path d="M9960 5230 c0 -5 4 -10 9 -10 6 0 13 5 16 10 3 6 -1 10 -9 10 -9 0
-16 -4 -16 -10z"/>
<path d="M11195 5219 c-4 -6 -5 -12 -2 -15 2 -3 7 2 10 11 7 17 1 20 -8 4z"/>
<path d="M8435 5210 c-4 -6 5 -10 19 -10 14 0 26 5 26 10 0 6 -9 10 -19 10
-11 0 -23 -4 -26 -10z"/>
<path d="M9410 5210 c0 -5 7 -10 16 -10 8 0 12 5 9 10 -3 6 -10 10 -16 10 -5
0 -9 -4 -9 -10z"/>
<path d="M9693 5203 c9 -2 25 -2 35 0 9 3 1 5 -18 5 -19 0 -27 -2 -17 -5z"/>
<path d="M9268 5188 c9 -9 15 -9 24 0 9 9 7 12 -12 12 -19 0 -21 -3 -12 -12z"/>
<path d="M9863 5193 c9 -2 23 -2 30 0 6 3 -1 5 -18 5 -16 0 -22 -2 -12 -5z"/>
<path d="M8040 5160 c0 -5 5 -10 10 -10 6 0 10 5 10 10 0 6 -4 10 -10 10 -5 0
-10 -4 -10 -10z"/>
<path d="M9388 5153 c7 -3 16 -2 19 1 4 3 -2 6 -13 5 -11 0 -14 -3 -6 -6z"/>
<path d="M9680 5150 c-11 -7 -4 -10 25 -9 31 0 36 2 20 9 -26 11 -28 11 -45 0z"/>
<path d="M8203 5140 c-91 -13 -103 -18 -103 -43 0 -26 26 -70 68 -115 16 -18
41 -51 55 -75 14 -23 34 -51 46 -61 12 -11 21 -24 21 -30 0 -6 43 -56 95 -111
52 -54 95 -102 95 -105 0 -9 233 -226 236 -220 1 3 20 -13 42 -35 37 -38 97
-88 116 -96 5 -2 24 -19 43 -37 19 -18 50 -39 68 -46 18 -8 50 -29 71 -48 22
-18 55 -41 74 -51 20 -10 58 -36 85 -57 57 -45 140 -90 167 -90 10 0 18 -7 18
-17 0 -12 8 -18 24 -19 13 -1 37 -12 54 -24 16 -12 37 -20 47 -18 13 2 4 12
-31 38 -27 19 -50 38 -52 42 -2 4 -9 8 -15 8 -6 0 -42 24 -81 53 -39 29 -95
71 -124 92 -65 46 -97 72 -291 239 -49 42 -198 193 -240 241 -18 22 -59 70
-90 106 -116 136 -251 329 -309 441 -14 26 -28 47 -31 47 -3 -1 -30 -5 -58 -9z"/>
<path d="M9453 5143 c9 -2 25 -2 35 0 9 3 1 5 -18 5 -19 0 -27 -2 -17 -5z"/>
<path d="M9526 5132 c-3 -5 4 -12 17 -16 35 -9 97 -7 97 4 0 6 -15 10 -32 10
-18 0 -43 3 -54 6 -12 3 -24 1 -28 -4z"/>
<path d="M8026 5055 c4 -8 8 -15 10 -15 2 0 4 7 4 15 0 8 -4 15 -10 15 -5 0
-7 -7 -4 -15z"/>
<path d="M10869 4758 c-6 -21 -5 -38 2 -38 5 0 9 9 9 20 0 16 -7 28 -11 18z"/>
<path d="M10740 4615 c-19 -22 -8 -25 13 -3 9 10 13 18 8 18 -5 0 -14 -7 -21
-15z"/>
<path d="M10438 4323 c7 -3 16 -2 19 1 4 3 -2 6 -13 5 -11 0 -14 -3 -6 -6z"/>
<path d="M8785 4270 c-3 -5 -1 -10 4 -10 6 0 11 5 11 10 0 6 -2 10 -4 10 -3 0
-8 -4 -11 -10z"/>
<path d="M10360 4270 c0 -5 5 -10 11 -10 5 0 7 5 4 10 -3 6 -8 10 -11 10 -2 0
-4 -4 -4 -10z"/>
<path d="M10212 4130 c0 -14 2 -19 5 -12 2 6 2 18 0 25 -3 6 -5 1 -5 -13z"/>
<path d="M8938 4113 c7 -3 16 -2 19 1 4 3 -2 6 -13 5 -11 0 -14 -3 -6 -6z"/>
<path d="M10238 4113 c7 -3 16 -2 19 1 4 3 -2 6 -13 5 -11 0 -14 -3 -6 -6z"/>
<path d="M9838 3903 c-27 -7 -22 -23 7 -23 16 0 25 6 25 15 0 15 -2 16 -32 8z"/>
<path d="M9620 3819 c0 -5 5 -7 10 -4 6 3 10 8 10 11 0 2 -4 4 -10 4 -5 0 -10
-5 -10 -11z"/>
<path d="M2710 7885 c-7 -8 -9 -15 -4 -16 16 -2 -41 -17 -67 -18 -15 -1 -43
-8 -64 -17 -35 -14 -36 -16 -19 -30 18 -14 17 -15 -8 -10 -22 5 -26 3 -22 -9
4 -8 13 -15 22 -15 12 0 11 -5 -6 -23 -28 -29 -28 -68 -1 -93 12 -10 25 -29
30 -41 9 -24 31 -28 79 -14 17 5 36 1 58 -11 18 -10 48 -18 68 -18 31 0 37 4
53 42 l17 42 17 -24 c9 -14 17 -32 17 -41 0 -16 27 -29 63 -29 9 0 17 7 17 15
0 8 12 17 28 21 15 3 36 10 47 14 11 5 36 11 55 12 29 3 38 10 57 43 32 57 30
94 -10 140 -38 44 -74 55 -262 80 -140 18 -150 18 -165 0z"/>
<path d="M1950 7670 c0 -5 5 -10 10 -10 6 0 10 5 10 10 0 6 -4 10 -10 10 -5 0
-10 -4 -10 -10z"/>
<path d="M1890 7343 c0 -23 22 -56 74 -111 29 -30 52 -44 79 -49 31 -5 36 -9
32 -24 -5 -13 -1 -19 10 -19 12 0 15 6 10 19 -4 15 -2 18 12 15 10 -3 31 -1
46 5 20 8 27 17 27 38 0 26 1 26 15 7 14 -18 14 -18 15 10 0 31 -23 55 -53 56
-11 0 -32 14 -49 32 -25 27 -32 30 -49 20 -22 -14 -54 -15 -77 -3 -9 4 -34 11
-54 15 -33 6 -38 4 -38 -11z"/>
<path d="M3320 7276 c-32 -18 -130 -62 -153 -70 -10 -3 -27 -1 -38 4 -40 22
-81 -26 -55 -65 32 -48 133 -73 143 -35 5 18 7 18 47 3 22 -9 47 -21 54 -26 9
-7 18 -6 29 6 13 12 20 13 35 4 17 -10 24 -7 49 23 16 19 29 44 29 57 0 12 5
25 10 28 6 3 10 17 10 31 0 21 -4 24 -38 24 -21 0 -47 7 -58 15 -24 18 -32 18
-64 1z"/>
<path d="M1557 7174 c-3 -3 -3 -12 0 -20 4 -10 9 -11 24 -1 10 6 19 15 19 19
0 9 -34 11 -43 2z"/>
<path d="M3270 6941 c-14 -3 -67 -27 -119 -53 -51 -27 -105 -48 -120 -48 -16
0 -36 -9 -46 -20 -15 -16 -16 -22 -5 -36 11 -12 24 -14 64 -9 28 4 61 13 73
21 14 9 49 14 93 14 117 0 210 -31 210 -71 0 -10 5 -21 10 -24 16 -10 0 156
-18 183 -8 12 -24 22 -36 22 -12 0 -31 7 -42 15 -20 15 -26 16 -64 6z"/>
<path d="M3266 6716 c-18 -13 -38 -64 -30 -77 3 -5 10 -9 16 -9 6 0 19 -7 28
-15 14 -12 23 -13 51 -4 36 12 79 51 79 73 0 28 -115 55 -144 32z"/>
<path d="M1496 8175 c-3 -8 -1 -15 4 -15 6 0 10 7 10 15 0 8 -2 15 -4 15 -2 0
-6 -7 -10 -15z"/>
<path d="M5410 6899 c0 -5 5 -7 10 -4 6 3 10 8 10 11 0 2 -4 4 -10 4 -5 0 -10
-5 -10 -11z"/>
<path d="M5589 6853 c-1 -10 0 -28 0 -40 1 -11 -5 -54 -13 -95 -16 -76 -24
-224 -12 -235 14 -14 21 12 25 90 1 45 7 87 12 93 5 6 8 40 7 76 -1 35 2 70 6
76 9 15 -2 52 -15 52 -5 0 -9 -8 -10 -17z"/>
<path d="M5391 6820 c0 -37 2 -41 9 -22 6 13 6 31 0 45 -7 18 -9 14 -9 -23z"/>
<path d="M5187 6844 c-4 -4 -7 -16 -7 -26 0 -10 -16 -32 -35 -49 -19 -17 -35
-37 -35 -44 0 -7 -7 -18 -15 -25 -13 -11 -20 -9 -39 9 -12 11 -25 18 -29 15
-8 -9 3 -126 13 -137 5 -5 18 -6 30 -2 22 7 22 7 -7 37 -27 28 -27 30 -9 43
13 10 24 11 37 5 10 -6 28 -8 41 -6 13 3 25 5 28 5 3 1 11 22 19 49 7 26 17
56 22 67 11 22 -1 71 -14 59z"/>
<path d="M5361 6683 c-7 -21 -15 -56 -17 -78 -2 -22 -1 -33 2 -25 3 8 9 24 14
35 5 11 11 31 13 45 2 14 8 33 12 43 4 9 3 17 -1 17 -5 0 -15 -17 -23 -37z"/>
<path d="M5828 6593 c-25 -6 -23 1 -48 -318 -4 -55 -15 -126 -23 -157 -8 -32
-16 -100 -16 -152 -1 -77 2 -98 17 -117 l19 -22 7 64 c12 114 23 173 45 229
11 30 21 60 21 67 0 7 9 32 19 56 46 102 63 302 29 345 -10 12 -37 14 -70 5z"/>
<path d="M5301 6461 c-6 -11 -8 -27 -5 -36 4 -9 2 -26 -4 -38 -12 -26 -33
-123 -39 -185 -5 -39 -3 -43 13 -40 14 2 20 13 22 43 1 22 8 50 14 62 6 12 8
36 4 53 -3 20 0 42 9 60 17 33 20 86 6 95 -6 3 -15 -3 -20 -14z"/>
<path d="M5515 6303 c-4 -32 -11 -82 -16 -112 -9 -54 -2 -161 10 -161 19 0 37
174 32 303 -2 49 -19 28 -26 -30z"/>
<path d="M5916 6143 c-12 -12 -5 -23 14 -23 11 0 20 4 20 9 0 11 -26 22 -34
14z"/>
<path d="M5245 6106 c-3 -9 -7 -23 -10 -31 -2 -8 -1 -15 4 -15 10 0 25 50 17
58 -3 2 -8 -3 -11 -12z"/>
<path d="M5270 5850 c0 -11 -6 -20 -14 -20 -29 0 -38 -27 -21 -62 19 -40 43
-73 49 -67 2 2 6 25 8 52 3 26 8 50 11 53 8 8 -13 64 -24 64 -5 0 -9 -9 -9
-20z"/>
<path d="M5347 5793 c-4 -3 -7 -15 -7 -25 0 -13 7 -18 25 -18 29 0 36 34 9 44
-19 7 -19 7 -27 -1z"/>
<path d="M5212 5595 c2 -14 12 -21 36 -23 18 -2 32 1 32 7 0 6 -10 11 -23 11
-13 0 -29 6 -36 13 -10 10 -12 8 -9 -8z"/>
<path d="M4920 5450 c0 -5 5 -10 10 -10 6 0 10 5 10 10 0 6 -4 10 -10 10 -5 0
-10 -4 -10 -10z"/>
<path d="M5797 5118 c-10 -15 -16 -32 -12 -38 4 -6 3 -10 -2 -8 -4 1 -23 -2
-40 -6 -30 -7 -33 -11 -33 -47 0 -33 4 -41 26 -51 51 -23 121 45 96 94 -6 13
-13 37 -14 53 l-3 30 -18 -27z"/>
<path d="M3968 2753 c7 -3 16 -2 19 1 4 3 -2 6 -13 5 -11 0 -14 -3 -6 -6z"/>
<path d="M2345 4696 c-11 -6 -42 -24 -70 -40 -99 -57 -96 -55 -83 -75 9 -15 8
-26 -5 -54 -25 -51 -21 -55 18 -17 l36 35 44 -24 c33 -17 45 -30 45 -46 0 -12
7 -39 15 -58 8 -20 15 -39 15 -42 0 -3 -18 -23 -40 -46 -22 -23 -37 -45 -34
-51 3 -5 28 -7 55 -4 l49 6 36 -50 c20 -28 40 -50 45 -50 9 0 16 24 21 70 4
32 40 50 101 50 26 0 47 3 47 8 0 4 -24 19 -52 33 -49 23 -53 27 -52 60 1 18
4 49 9 67 10 43 -7 42 -64 -3 -24 -19 -48 -32 -55 -28 -6 3 -30 20 -53 36 -40
29 -43 33 -43 78 0 47 1 48 50 75 51 28 57 44 14 44 -22 0 -23 3 -14 20 12 23
-2 26 -35 6z"/>
<path d="M2576 4673 c-3 -4 -24 -6 -45 -5 -56 4 -58 -12 -6 -32 50 -19 59 -37
46 -84 -5 -17 -8 -32 -6 -32 3 0 25 10 50 22 l45 22 35 -34 c36 -35 54 -36 36
-2 -6 11 -8 27 -5 35 3 9 -7 24 -26 38 -17 13 -46 36 -64 52 -35 28 -47 32
-60 20z"/>
<path d="M2086 4431 c-18 -54 -22 -171 -6 -171 5 0 12 11 16 25 5 20 11 24 26
19 17 -5 18 -2 12 44 -4 36 -2 57 10 80 21 40 20 45 -4 37 -11 -4 -20 -2 -20
4 0 28 -19 6 -34 -38z"/>
<path d="M2770 4401 c0 -57 -8 -70 -48 -77 -61 -10 -65 -12 -50 -27 7 -7 28
-19 46 -26 29 -12 32 -17 32 -59 l0 -46 33 32 c18 18 42 32 54 32 20 0 21 4
16 83 -6 89 -9 99 -24 77 -8 -13 -12 -12 -24 4 -8 11 -15 26 -15 33 0 7 -4 13
-10 13 -5 0 -10 -18 -10 -39z"/>
<path d="M2140 4227 c0 -24 -5 -48 -12 -55 -9 -9 -7 -17 9 -34 11 -13 28 -37
39 -55 24 -43 44 -50 44 -16 0 24 3 25 35 20 19 -3 35 -3 35 1 0 3 -14 21 -32
39 l-32 33 22 52 c12 28 20 54 17 57 -3 2 -18 -5 -35 -17 -30 -22 -54 -21 -64
4 -11 29 -26 13 -26 -29z"/>
<path d="M2456 4123 c-27 -53 -46 -63 -93 -50 -55 14 -63 4 -23 -29 l32 -27
-23 -18 c-30 -22 -21 -26 81 -33 41 -3 84 -6 95 -8 16 -2 19 2 17 24 -2 19 3
28 18 33 29 9 25 22 -11 29 -38 7 -58 31 -59 68 0 38 -17 43 -34 11z"/>
<path d="M2725 4123 c-9 -38 -33 -63 -61 -63 -32 0 -35 -11 -13 -39 24 -29 42
-23 112 39 47 42 61 68 30 56 -10 -4 -25 2 -38 14 l-23 21 -7 -28z"/>
<path d="M3530 4390 c0 -5 5 -10 10 -10 6 0 10 5 10 10 0 6 -4 10 -10 10 -5 0
-10 -4 -10 -10z"/>
<path d="M3580 4278 c0 -7 5 -20 10 -28 8 -12 10 -9 10 13 0 15 -4 27 -10 27
-5 0 -10 -6 -10 -12z"/>
<path d="M3700 3940 c0 -11 4 -20 9 -20 5 0 7 9 4 20 -3 11 -7 20 -9 20 -2 0
-4 -9 -4 -20z"/>
<path d="M2986 3911 c-3 -4 4 -17 17 -27 17 -15 19 -15 8 -2 -7 9 -10 22 -6
28 3 5 2 10 -4 10 -5 0 -12 -4 -15 -9z"/>
<path d="M3297 3873 c-10 -9 -9 -23 2 -23 5 0 11 7 15 15 5 15 -5 20 -17 8z"/>
<path d="M2736 3744 c-4 -12 -14 -14 -36 -9 -33 7 -42 -13 -15 -35 12 -10 16
-9 21 4 7 19 35 21 52 4 18 -18 27 -1 14 27 -13 29 -27 32 -36 9z"/>
<path d="M2490 3710 c0 -13 5 -20 13 -17 6 2 12 10 12 17 0 7 -6 15 -12 18 -8
2 -13 -5 -13 -18z"/>
<path d="M2440 3666 c0 -8 5 -18 10 -21 6 -3 10 3 10 14 0 12 -4 21 -10 21 -5
0 -10 -6 -10 -14z"/>
<path d="M2590 3630 c6 -11 16 -20 22 -20 6 0 3 9 -7 20 -10 11 -20 20 -22 20
-2 0 1 -9 7 -20z"/>
<path d="M2380 3631 c0 -16 12 -41 20 -41 4 0 5 11 2 25 -4 23 -22 36 -22 16z"/>
<path d="M2340 3598 c0 -9 5 -20 10 -23 13 -8 13 5 0 25 -8 13 -10 13 -10 -2z"/>
<path d="M2670 3589 c0 -5 5 -7 10 -4 6 3 10 8 10 11 0 2 -4 4 -10 4 -5 0 -10
-5 -10 -11z"/>
<path d="M2402 3549 c-28 -22 -24 -45 13 -79 24 -22 37 -16 14 7 -8 8 -8 13 0
17 19 12 12 28 -9 21 -26 -8 -28 20 -3 34 10 5 16 12 13 14 -3 3 -15 -3 -28
-14z"/>
<path d="M2590 3530 c-9 -6 -10 -10 -3 -10 6 0 15 5 18 10 8 12 4 12 -15 0z"/>
<path d="M2480 3443 l-25 -26 35 23 c46 31 45 30 29 29 -8 0 -25 -12 -39 -26z"/>
</g>
</svg>
